# xmcd
#
# Track frame offsets: 
#        150
#        13837
#        24415
#        36705
#        51487
#        62449
#        72768
#        84028
#        96412
#        107517
#
# Disc length: 1598 seconds
#
# Revision: 0
# Processed by: cddbd v1.5.2PL0 Copyright (c) Steve Scherf et al.
# Submitted via: ExactAudioCopy v0.99pb4
#
DISCID=7e063c0a
DTITLE=Various Artist - Greats of Country Music
DYEAR=2006
DGENRE=Country
TTITLE0=George Jones and Tammy Wynette - Golden Ring
TTITLE1=Willie Nelson - Blue Eyes Crying In The Rain
TTITLE2=Hank Williams - Your Cheatin' Heart
TTITLE3=Waylon Jennings and Johnny Cash - There Ain't No Good Chain Gang
TTITLE4=Roger Miller - King Of The Road
TTITLE5=Faron Young - Live Fast, Love Hard, Die Young
TTITLE6=Ray Price - Crazy Arms
TTITLE7=Charlie Rich - Behind Closed Doors
TTITLE8=Marty Robbins - Singing The Blues
TTITLE9=Merle Haggard - If We Make It Through December
EXTD=
EXTT0=
EXTT1=
EXTT2=
EXTT3=
EXTT4=
EXTT5=
EXTT6=
EXTT7=
EXTT8=
EXTT9=
PLAYORDER=
